<?xml version="1.0" standalone="no"?>
<!DOCTYPE svg PUBLIC "-//W3C//DTD SVG 20010904//EN"
 "http://www.w3.org/TR/2001/REC-SVG-20010904/DTD/svg10.dtd">
<svg version="1.0" xmlns="http://www.w3.org/2000/svg"
 width="1191.000000pt" height="851.000000pt" viewBox="0 0 1191.000000 851.000000"
 preserveAspectRatio="xMidYMid meet">
<metadata>
Created by potrace 1.15, written by Peter Selinger 2001-2017
</metadata>
<g transform="translate(0.000000,851.000000) scale(0.100000,-0.100000)"
fill="#000000" stroke="none">
<path d="M1942 7032 c-38 -25 -152 -421 -197 -688 -106 -625 -3 -1077 303
-1329 70 -58 197 -128 299 -165 34 -12 71 -32 82 -44 12 -12 31 -64 46 -121
59 -227 153 -402 290 -541 129 -130 273 -204 431 -220 85 -9 117 -31 178 -124
61 -94 214 -247 286 -288 30 -18 58 -32 62 -32 4 0 -7 39 -23 88 -46 135 -105
384 -124 521 -14 99 -17 162 -12 315 9 288 52 529 142 801 l53 160 -39 60
c-130 203 -156 409 -87 685 20 82 21 94 8 117 -12 21 -187 109 -830 419 -448
217 -824 394 -835 394 -11 0 -26 -4 -33 -8z"/>
<path d="M9100 6645 c-529 -255 -820 -401 -829 -415 -13 -20 -13 -32 7 -109
62 -244 53 -417 -33 -598 -19 -40 -48 -93 -64 -117 l-30 -44 48 -148 c113
-343 170 -753 143 -1027 -17 -173 -63 -389 -120 -565 -28 -84 -47 -152 -44
-152 14 0 103 58 162 105 70 55 154 153 213 247 46 72 69 87 154 99 356 50
612 316 729 759 13 52 31 105 40 118 16 24 16 25 139 72 123 48 211 105 306
199 135 134 211 283 255 501 70 339 21 809 -137 1297 -49 153 -60 173 -97 173
-15 -1 -394 -178 -842 -395z"/>
<path d="M5087 5906 l-859 -182 -60 -100 c-79 -130 -186 -351 -236 -489 -48
-131 -105 -359 -127 -505 -26 -168 -31 -452 -11 -590 75 -508 324 -1041 693
-1487 103 -124 367 -384 498 -489 262 -211 572 -406 898 -566 l69 -33 181 93
c433 220 769 461 1082 776 176 177 290 316 424 516 232 348 397 754 466 1145
55 314 8 730 -125 1120 -48 140 -163 380 -246 515 l-59 94 -835 177 c-459 97
-848 179 -865 182 -19 3 -335 -59 -888 -177z m1512 -633 l654 -138 33 -72
c128 -280 199 -654 172 -901 -22 -202 -114 -481 -234 -711 -131 -252 -278
-448 -503 -671 -198 -196 -379 -335 -645 -497 l-120 -73 -65 37 c-191 106
-454 296 -624 451 -404 369 -679 822 -794 1309 -24 104 -27 137 -27 278 1 177
16 292 65 473 33 124 112 332 138 362 12 14 153 47 651 153 349 74 637 136
640 136 3 1 299 -60 659 -136z"/>
<path d="M5655 4766 c-152 -49 -254 -162 -315 -348 l-22 -68 -99 0 c-91 0
-100 -2 -113 -23 -14 -20 -14 -29 0 -82 24 -93 27 -95 90 -95 l56 0 -36 -41
c-58 -69 -68 -113 -64 -306 3 -150 5 -173 26 -214 20 -40 22 -60 22 -183 0
-145 9 -184 49 -206 25 -13 207 -13 232 0 35 19 49 63 49 160 l0 90 429 0 429
0 4 -106 c3 -102 4 -107 31 -130 26 -22 37 -24 128 -24 55 0 109 5 120 10 40
22 49 61 49 206 0 123 2 143 23 183 20 41 22 64 25 209 4 190 -7 244 -63 310
l-37 42 49 0 c26 0 54 4 61 8 7 5 21 39 32 77 18 62 18 71 5 92 -14 21 -22 23
-114 23 l-99 0 -22 68 c-53 161 -138 268 -257 325 l-68 32 -280 2 c-207 2
-290 -1 -320 -11z m582 -267 c35 -13 90 -64 110 -103 21 -41 72 -204 65 -211
-7 -7 -897 -7 -904 0 -6 7 46 175 67 214 18 34 74 87 105 100 35 14 521 14
557 0z m-776 -586 c58 -52 91 -113 87 -160 -4 -49 -31 -63 -120 -63 -60 0 -71
3 -98 28 -36 32 -51 86 -39 140 10 47 59 92 99 92 20 0 43 -12 71 -37z m1131
8 c29 -25 32 -35 36 -95 4 -64 3 -67 -31 -101 -33 -33 -38 -35 -103 -35 -91 0
-118 14 -122 63 -4 47 29 108 87 160 51 46 88 48 133 8z"/>
</g>
</svg>
